<?xml version="1.0" encoding="utf-8"?>
<!-- Generator: Adobe Illustrator 16.0.0, SVG Export Plug-In . SVG Version: 6.00 Build 0)  -->
<!DOCTYPE svg PUBLIC "-//W3C//DTD SVG 1.1//EN" "http://www.w3.org/Graphics/SVG/1.1/DTD/svg11.dtd">
<svg version="1.1" id="Layer_1" xmlns="http://www.w3.org/2000/svg" xmlns:xlink="http://www.w3.org/1999/xlink" x="0px" y="0px"
	 width="256px" height="256px" viewBox="0 0 256 256" enable-background="new 0 0 256 256" xml:space="preserve">
<g>
	<path fill-rule="evenodd" clip-rule="evenodd" d="M216.5,160.5c2.582,0,5.164,0,7.745,0c0.365,2.108,0.485,24.737,0.165,31.922
		c-2.551,0-5.11,0-7.844,0c0,2.698,0,5.32,0,8.02c-8.063,0-15.953,0-24.013,0c0,8.029,0,15.979,0,24.014c-2.728,0-5.286,0-8.02,0
		c0,2.699,0,5.32,0,7.99c-10.729,0-21.283,0-32.013,0c0-2.611,0-5.234,0-7.936c-2.732,0-5.291,0-8.021,0c0-2.725,0-5.367,0-8.01
		c10.615,0,21.229,0,32,0c0-2.727,0-5.363,0-8c2.641,0,5.28,0,8,0c0-1.484,0.009-2.805-0.002-4.125
		c-0.012-1.296,0.047-2.598-0.033-3.875c-2.808,0-5.387,0-7.965,0c0-5.334,0-10.666,0-16c2.625,0,5.252,0,8,0c0-2.748,0-5.375,0-8
		c5.334,0,10.666,0,16,0c0,2.641,0,5.28,0,8c1.484,0,2.805,0.009,4.125-0.002c1.296-0.012,2.598,0.047,3.875-0.033
		c0-2.808,0-5.387,0-7.965c2.632,0,5.264,0,8,0C216.5,171.072,216.5,165.786,216.5,160.5z"/>
	<path fill-rule="evenodd" clip-rule="evenodd" d="M144.5,216.5c-13.284,0-26.568,0-39.933,0c0-2.654,0-5.209,0-7.926
		c-5.353,0-10.63,0-15.986,0c0-2.713,0-5.269,0-8.073c-1.369-0.001-2.667-0.001-3.966-0.001c-1.318,0-2.637,0-4.115,0
		c0-2.723,0-5.361,0-8c5.333,0,10.667,0,16,0c0,2.638,0,5.275,0,8c13.439,0,26.72,0,40,0c0,2.625,0,5.252,0,8c2.748,0,5.375,0,8,0
		C144.5,211.166,144.5,213.834,144.5,216.5z"/>
	<path fill-rule="evenodd" clip-rule="evenodd" fill="#FE0000" d="M40.5,40.5c0-2.582,0-5.164,0-7.746
		c2.221-0.383,54.943-0.53,64-0.171c0,2.632,0,5.274,0,7.917C83.167,40.5,61.833,40.5,40.5,40.5z"/>
	<path fill-rule="evenodd" clip-rule="evenodd" fill="#FE0000" d="M40.5,104.5c-2.582,0-5.164,0-7.746,0
		c-0.383-2.22-0.529-54.944-0.171-64c2.632,0,5.274,0,7.917,0C40.5,61.833,40.5,83.167,40.5,104.5z"/>
	<path fill-rule="evenodd" clip-rule="evenodd" fill="#FE0000" d="M112.5,48.5c2.576,0,5.151,0,7.963,0
		c0.085,1.271,0.023,2.569,0.035,3.861c0.012,1.32,0.002,2.64,0.002,4.094c13.326,0,26.584,0,40,0c0,2.77,0,5.407,0,8.045
		c-15.949,0-31.899,0-48,0C112.5,59.102,112.5,53.801,112.5,48.5z"/>
	<path fill-rule="evenodd" clip-rule="evenodd" fill="#FE0000" d="M64.5,160.5c-2.637,0-5.272,0-8,0c0-10.771,0-21.385,0-32
		c0-2.625,0-5.251,0-8c-2.749,0-5.374,0-8,0c0-2.667,0-5.333,0-8c5.301,0,10.602,0,16,0C64.5,128.601,64.5,144.551,64.5,160.5z"/>
	<path fill-rule="evenodd" clip-rule="evenodd" fill="#FE0000" d="M192.5,96.5c2.632,0,5.264,0,8,0c0,5.428,0,10.714,0,16
		c0,8,0,16,0,24c-2.638,0-5.275,0-8,0C192.5,123.061,192.5,109.78,192.5,96.5z"/>
	<path fill-rule="evenodd" clip-rule="evenodd" fill="#FE0000" d="M216.5,160.5c0,5.286,0,10.572,0,16c-2.736,0-5.368,0-8,0
		c0-10.666,0-21.334,0-32c2.632,0,5.264,0,8,0C216.5,149.928,216.5,155.214,216.5,160.5z"/>
	<path fill-rule="evenodd" clip-rule="evenodd" d="M200.5,136.5c0-8,0-16,0-24c2.635,0,5.27,0,8,0c0,8.1,0,16.051,0,24
		C205.834,136.5,203.166,136.5,200.5,136.5z"/>
	<path fill-rule="evenodd" clip-rule="evenodd" fill="#FE0000" d="M184.5,80.5c2.632,0,5.264,0,8,0c0,5.428,0,10.714,0,16
		c-2.632,0-5.264,0-8,0C184.5,91.072,184.5,85.786,184.5,80.5z"/>
	<path fill-rule="evenodd" clip-rule="evenodd" fill="#FE0000" d="M160.5,64.5c5.286,0,10.572,0,16,0c0,2.737,0,5.368,0,8
		c-5.286,0-10.572,0-16,0C160.5,69.763,160.5,67.132,160.5,64.5z"/>
	<path fill-rule="evenodd" clip-rule="evenodd" fill="#FE0000" d="M72.5,176.5c-2.632,0-5.263,0-8,0c0-5.428,0-10.714,0-16
		c2.632,0,5.263,0,8,0C72.5,165.928,72.5,171.214,72.5,176.5z"/>
	<path fill-rule="evenodd" clip-rule="evenodd" fill="#FE0000" d="M40.5,112.5c0-2.667,0-5.333,0-8c2.626,0,5.251,0,8,0
		c0,2.749,0,5.375,0,8C45.833,112.5,43.167,112.5,40.5,112.5z"/>
	<path fill-rule="evenodd" clip-rule="evenodd" fill="#FE0000" d="M200.5,136.5c2.666,0,5.334,0,8,0c0,2.666,0,5.334,0,8
		c-2.625,0-5.252,0-8,0C200.5,141.752,200.5,139.125,200.5,136.5z"/>
	<path fill-rule="evenodd" clip-rule="evenodd" d="M48.5,120.5c2.626,0,5.251,0,8,0c0,2.749,0,5.375,0,8c-2.626,0-5.251,0-8,0
		C48.5,125.751,48.5,123.125,48.5,120.5z"/>
	<path fill-rule="evenodd" clip-rule="evenodd" fill="#FE0000" d="M176.5,72.5c2.625,0,5.252,0,8,0c0,2.749,0,5.375,0,8
		c-2.625,0-5.252,0-8,0C176.5,77.751,176.5,75.125,176.5,72.5z"/>
	<path fill-rule="evenodd" clip-rule="evenodd" d="M40.5,112.5c2.667,0,5.333,0,8,0c0,2.667,0,5.333,0,8c-2.626,0-5.251,0-8,0
		C40.5,117.751,40.5,115.125,40.5,112.5z"/>
	<path fill-rule="evenodd" clip-rule="evenodd" fill="#FE0000" d="M104.5,40.5c2.625,0,5.251,0,8,0c0,2.749,0,5.375,0,8
		c-2.625,0-5.251,0-8,0C104.5,45.751,104.5,43.125,104.5,40.5z"/>
	<path fill-rule="evenodd" clip-rule="evenodd" fill="#FE0000" d="M72.5,184.5c0-2.666,0-5.334,0-8c2.625,0,5.251,0,8,0
		c0,2.748,0,5.375,0,8C77.833,184.5,75.167,184.5,72.5,184.5z"/>
	<path fill-rule="evenodd" clip-rule="evenodd" d="M72.5,184.5c2.667,0,5.333,0,8,0c0,2.666,0,5.334,0,8c-2.625,0-5.251,0-8,0
		C72.5,189.752,72.5,187.125,72.5,184.5z"/>
	<path fill-rule="evenodd" clip-rule="evenodd" fill="#FE0000" d="M144.5,216.5c0-2.666,0-5.334,0-8c10.666,0,21.334,0,32,0
		c0,2.637,0,5.273,0,8C165.729,216.5,155.115,216.5,144.5,216.5z"/>
	<path fill-rule="evenodd" clip-rule="evenodd" fill="#FE0000" d="M200.5,176.5c-5.334,0-10.666,0-16,0c0-5.303,0-10.605,0-15.875
		c2.773,0,5.389,0,8.083,0c0,2.682,0,5.238,0,7.875c1.401,0,2.722-0.009,4.042,0.002c1.296,0.012,2.598-0.047,3.875,0.033
		C200.5,171.343,200.5,173.922,200.5,176.5z"/>
	<path fill-rule="evenodd" clip-rule="evenodd" fill="#FE0000" d="M176.5,184.5c0,5.334,0,10.666,0,16c-2.641,0-5.28,0-8,0
		c0-1.484,0.009-2.805-0.002-4.125c-0.012-1.296,0.047-2.598-0.038-3.963c-2.78,0-5.335,0-7.913,0c0-2.645,0-5.2,0-7.912
		C165.895,184.5,171.197,184.5,176.5,184.5z"/>
	<path fill-rule="evenodd" clip-rule="evenodd" fill="#FE0000" d="M184.5,176.5c0,2.625,0,5.252,0,8c-2.748,0-5.375,0-8,0
		c0-2.625,0-5.252,0-8C179.248,176.5,181.875,176.5,184.5,176.5z"/>
	<path fill-rule="evenodd" clip-rule="evenodd" fill="#FE0000" d="M208.5,176.5c0,2.578,0,5.157,0,7.965
		c-1.277,0.08-2.579,0.021-3.875,0.033c-1.32,0.011-2.641,0.002-4.125,0.002c0-2.72,0-5.359,0-8
		C203.166,176.5,205.834,176.5,208.5,176.5z"/>
	<path fill-rule="evenodd" clip-rule="evenodd" fill="#FE0000" d="M176.5,200.5c2.578,0,5.157,0,7.965,0
		c0.08,1.277,0.021,2.579,0.033,3.875c0.011,1.32,0.002,2.641,0.002,4.125c-2.72,0-5.359,0-8,0
		C176.5,205.834,176.5,203.166,176.5,200.5z"/>
	<path fill-rule="evenodd" clip-rule="evenodd" fill="#FE0000" d="M136.5,200.5c-13.28,0-26.561,0-40,0c0-2.725,0-5.362,0-8
		c13.209,0,26.419,0,39.629,0.004c0.07,0,0.149,0.045,0.209,0.09c0.064,0.047,0.109,0.119,0.162,0.18
		C136.5,195.35,136.5,197.924,136.5,200.5z"/>
	<path fill-rule="evenodd" clip-rule="evenodd" fill="#FE0000" d="M80.5,192.5c0-2.666,0-5.334,0-8c5.286,0,10.572,0,16,0
		c0,2.736,0,5.368,0,8C91.167,192.5,85.833,192.5,80.5,192.5z"/>
	<path fill-rule="evenodd" clip-rule="evenodd" fill="#FE0000" d="M144.5,208.5c-2.625,0-5.252,0-8,0c0-2.748,0-5.375,0-8
		c2.625,0,5.252,0,8,0C144.5,203.248,144.5,205.875,144.5,208.5z"/>
	<path fill-rule="evenodd" clip-rule="evenodd" fill="#FEFEFE" d="M144.5,208.5c0-2.625,0-5.252,0-8c-2.748,0-5.375,0-8,0
		c0-2.576,0-5.15,0-7.727c-0.053-0.061-0.098-0.133-0.162-0.18c-0.06-0.045-0.139-0.09-0.209-0.09
		c-13.21-0.004-26.419-0.004-39.629-0.004c0-2.632,0-5.264,0-8c-5.428,0-10.714,0-16,0c0-2.625,0-5.252,0-8c-2.749,0-5.375,0-8,0
		c0-5.286,0-10.572,0-16c-2.737,0-5.368,0-8,0c0-15.949,0-31.899,0-48c-5.398,0-10.699,0-16,0c0-2.625,0-5.251,0-8
		c-2.749,0-5.374,0-8,0c0-21.333,0-42.667,0-64c21.333,0,42.667,0,64,0c0,2.625,0,5.251,0,8c2.749,0,5.375,0,8,0
		c0,5.301,0,10.602,0,16c16.101,0,32.051,0,48,0c0,2.632,0,5.263,0,8c5.428,0,10.714,0,16,0c0,2.625,0,5.251,0,8
		c2.748,0,5.375,0,8,0c0,5.286,0,10.572,0,16c2.736,0,5.368,0,8,0c0,13.28,0,26.561,0,40c2.725,0,5.362,0,8,0c0,2.625,0,5.252,0,8
		c2.748,0,5.375,0,8,0c0,10.666,0,21.334,0,32c-2.666,0-5.334,0-8,0c0-2.578,0-5.157,0-7.965c-1.277-0.08-2.579-0.021-3.875-0.033
		c-1.32-0.011-2.641-0.002-4.042-0.002c0-2.637,0-5.193,0-7.875c-2.694,0-5.31,0-8.083,0c0,5.27,0,10.572,0,15.875
		c-2.625,0-5.252,0-8,0c0,2.748,0,5.375,0,8c-5.303,0-10.605,0-15.953,0c0,2.712,0,5.268,0,7.912c2.578,0,5.133,0,7.913,0
		c0.085,1.365,0.026,2.667,0.038,3.963c0.011,1.32,0.002,2.641,0.002,4.125c2.72,0,5.359,0,8,0c0,2.666,0,5.334,0,8
		C165.834,208.5,155.166,208.5,144.5,208.5z M152.5,160.5c2.625,0,5.252,0,8,0c0-2.748,0-5.375,0-8c2.625,0,5.252,0,8,0
		c0-2.748,0-5.375,0-8c0-10.666,0-21.333,0-32c0-2.625,0-5.251,0-8c-2.748,0-5.375,0-8,0c0-2.625,0-5.251,0-8c-2.748,0-5.375,0-8,0
		c0-2.625,0-5.251,0-8c-2.748,0-5.375,0-8,0c-10.666,0-21.333,0-32,0c-2.625,0-5.251,0-8,0c0,2.749,0,5.375,0,8
		c-2.625,0-5.251,0-8,0c0,2.749,0,5.375,0,8c-2.625,0-5.251,0-8,0c0,2.749,0,5.375,0,8c0,10.667,0,21.334,0,32c0,2.625,0,5.252,0,8
		c2.749,0,5.375,0,8,0c0,2.625,0,5.252,0,8c2.749,0,5.375,0,8,0c0,2.625,0,5.252,0,8c2.749,0,5.375,0,8,0c10.667,0,21.334,0,32,0
		c2.625,0,5.252,0,8,0C152.5,165.752,152.5,163.125,152.5,160.5z M72.434,80.577c-2.57,0-5.206,0-7.828,0c0,5.348,0,10.618,0,15.864
		c2.659,0,5.211,0,7.828,0c0-5.352,0-10.646,0.066-15.941c2.625,0,5.251,0,8,0c0-2.749,0-5.375,0.077-8.066
		c5.217,0,10.512,0,15.816,0c0-2.678,0-5.289,0-7.886c-5.318,0-10.529,0-15.816,0c0,2.681,0,5.316-0.077,7.952c-2.625,0-5.251,0-8,0
		C72.5,75.249,72.5,77.875,72.434,80.577z"/>
	<path fill-rule="evenodd" clip-rule="evenodd" d="M88.5,144.5c0-10.666,0-21.333,0-32c2.667,0,5.333,0,8,0c0,10.667,0,21.334,0,32
		C93.833,144.5,91.167,144.5,88.5,144.5z"/>
	<path fill-rule="evenodd" clip-rule="evenodd" d="M112.5,88.5c10.667,0,21.334,0,32,0c0,2.667,0,5.333,0,8c-10.666,0-21.333,0-32,0
		C112.5,93.833,112.5,91.167,112.5,88.5z"/>
	<path fill-rule="evenodd" clip-rule="evenodd" d="M168.5,112.5c0,10.667,0,21.334,0,32c-2.666,0-5.334,0-8,0
		c0-10.666,0-21.333,0-32C163.166,112.5,165.834,112.5,168.5,112.5z"/>
	<path fill-rule="evenodd" clip-rule="evenodd" d="M144.5,168.5c-10.666,0-21.333,0-32,0c0-2.666,0-5.334,0-8
		c10.667,0,21.334,0,32,0C144.5,163.166,144.5,165.834,144.5,168.5z"/>
	<path fill-rule="evenodd" clip-rule="evenodd" fill="#FE0000" d="M80.577,72.434c0-2.57,0-5.206,0-7.886c5.288,0,10.499,0,15.816,0
		c0,2.597,0,5.208,0,7.886C91.089,72.434,85.794,72.434,80.577,72.434z"/>
	<path fill-rule="evenodd" clip-rule="evenodd" fill="#FE0000" d="M72.434,80.577c0,5.217,0,10.512,0,15.864
		c-2.617,0-5.168,0-7.828,0c0-5.246,0-10.516,0-15.864C67.229,80.577,69.864,80.577,72.434,80.577z"/>
	<path fill-rule="evenodd" clip-rule="evenodd" fill="#FE0000" d="M144.5,96.5c0-2.667,0-5.333,0-8c2.625,0,5.252,0,8,0
		c0,2.749,0,5.375,0,8C149.834,96.5,147.166,96.5,144.5,96.5z"/>
	<path fill-rule="evenodd" clip-rule="evenodd" fill="#FE0000" d="M96.5,104.5c0-2.625,0-5.251,0-8c2.749,0,5.375,0,8,0
		c0,2.667,0,5.333,0,8C101.833,104.5,99.167,104.5,96.5,104.5z"/>
	<path fill-rule="evenodd" clip-rule="evenodd" fill="#FE0000" d="M152.5,96.5c2.625,0,5.252,0,8,0c0,2.749,0,5.375,0,8
		c-2.666,0-5.334,0-8,0C152.5,101.833,152.5,99.167,152.5,96.5z"/>
	<path fill-rule="evenodd" clip-rule="evenodd" fill="#FE0000" d="M88.5,144.5c2.667,0,5.333,0,8,0c0,2.666,0,5.334,0,8
		c-2.625,0-5.251,0-8,0C88.5,149.752,88.5,147.125,88.5,144.5z"/>
	<path fill-rule="evenodd" clip-rule="evenodd" fill="#FE0000" d="M160.5,144.5c2.666,0,5.334,0,8,0c0,2.625,0,5.252,0,8
		c-2.748,0-5.375,0-8,0C160.5,149.834,160.5,147.166,160.5,144.5z"/>
	<path fill-rule="evenodd" clip-rule="evenodd" fill="#FE0000" d="M104.5,160.5c-2.625,0-5.251,0-8,0c0-2.748,0-5.375,0-8
		c2.667,0,5.333,0,8,0C104.5,155.166,104.5,157.834,104.5,160.5z"/>
	<path fill-rule="evenodd" clip-rule="evenodd" fill="#FE0000" d="M160.5,152.5c0,2.625,0,5.252,0,8c-2.748,0-5.375,0-8,0
		c0-2.666,0-5.334,0-8C155.166,152.5,157.834,152.5,160.5,152.5z"/>
	<path fill-rule="evenodd" clip-rule="evenodd" fill="#FE0000" d="M80.5,72.5c0,2.625,0,5.251,0,8c-2.749,0-5.375,0-8,0
		c0-2.625,0-5.251,0-8C75.249,72.5,77.875,72.5,80.5,72.5z"/>
	<path fill-rule="evenodd" clip-rule="evenodd" fill="#FE0000" d="M112.5,160.5c0,2.666,0,5.334,0,8c-2.625,0-5.251,0-8,0
		c0-2.748,0-5.375,0-8C107.167,160.5,109.833,160.5,112.5,160.5z"/>
	<path fill-rule="evenodd" clip-rule="evenodd" fill="#FE0000" d="M144.5,168.5c0-2.666,0-5.334,0-8c2.666,0,5.334,0,8,0
		c0,2.625,0,5.252,0,8C149.752,168.5,147.125,168.5,144.5,168.5z"/>
	<path fill-rule="evenodd" clip-rule="evenodd" fill="#FE0000" d="M96.5,112.5c-2.667,0-5.333,0-8,0c0-2.625,0-5.251,0-8
		c2.749,0,5.375,0,8,0C96.5,107.167,96.5,109.833,96.5,112.5z"/>
	<path fill-rule="evenodd" clip-rule="evenodd" fill="#FE0000" d="M112.5,88.5c0,2.667,0,5.333,0,8c-2.667,0-5.333,0-8,0
		c0-2.625,0-5.251,0-8C107.249,88.5,109.875,88.5,112.5,88.5z"/>
	<path fill-rule="evenodd" clip-rule="evenodd" fill="#FE0000" d="M168.5,112.5c-2.666,0-5.334,0-8,0c0-2.667,0-5.333,0-8
		c2.625,0,5.252,0,8,0C168.5,107.249,168.5,109.875,168.5,112.5z"/>
	<path fill-rule="evenodd" clip-rule="evenodd" fill="#FEFEFE" d="M144.5,160.5c-10.666,0-21.333,0-32,0c0-2.625,0-5.252,0-8
		c-2.749,0-5.375,0-8,0c0-2.625,0-5.252,0-8c-2.749,0-5.375,0-8,0c0-10.666,0-21.333,0-32c2.625,0,5.251,0,8,0c0-2.749,0-5.375,0-8
		c2.625,0,5.251,0,8,0c0-2.749,0-5.375,0-8c10.667,0,21.334,0,32,0c0,2.625,0,5.251,0,8c2.748,0,5.375,0,8,0c0,2.625,0,5.251,0,8
		c2.748,0,5.375,0,8,0c0,10.667,0,21.334,0,32c-2.625,0-5.252,0-8,0c0,2.748,0,5.375,0,8c-2.625,0-5.252,0-8,0
		C144.5,155.248,144.5,157.875,144.5,160.5z M112.588,120.485c0,5.491,0,10.717,0,16.029c2.646,0,5.207,0,7.941,0
		c0,2.704,0,5.327,0,7.919c5.402,0,10.628,0,16.029,0c0-2.684,0-5.307,0-8.008c2.736,0,5.297,0,7.941,0
		c0-5.242,0-10.396-0.004-15.55c0-0.071-0.043-0.151-0.088-0.211c-0.047-0.064-0.118-0.11-0.287-0.26c-2.45,0-5.009,0-7.65,0
		c0-2.654,0-5.214,0-7.794c-5.373,0-10.658,0-16.029,0c0,2.67,0,5.23,0,7.875C117.795,120.485,115.235,120.485,112.588,120.485z"/>
	<path fill-rule="evenodd" clip-rule="evenodd" d="M152.5,104.5c-2.625,0-5.252,0-8,0c0-2.749,0-5.375,0-8c2.666,0,5.334,0,8,0
		C152.5,99.167,152.5,101.833,152.5,104.5z"/>
	<path fill-rule="evenodd" clip-rule="evenodd" d="M112.5,96.5c0,2.625,0,5.251,0,8c-2.749,0-5.375,0-8,0c0-2.667,0-5.333,0-8
		C107.167,96.5,109.833,96.5,112.5,96.5z"/>
	<path fill-rule="evenodd" clip-rule="evenodd" d="M104.5,104.5c0,2.625,0,5.251,0,8c-2.749,0-5.375,0-8,0c0-2.667,0-5.333,0-8
		C99.167,104.5,101.833,104.5,104.5,104.5z"/>
	<path fill-rule="evenodd" clip-rule="evenodd" d="M160.5,112.5c-2.625,0-5.252,0-8,0c0-2.749,0-5.375,0-8c2.666,0,5.334,0,8,0
		C160.5,107.167,160.5,109.833,160.5,112.5z"/>
	<path fill-rule="evenodd" clip-rule="evenodd" d="M96.5,144.5c2.625,0,5.251,0,8,0c0,2.748,0,5.375,0,8c-2.667,0-5.333,0-8,0
		C96.5,149.834,96.5,147.166,96.5,144.5z"/>
	<path fill-rule="evenodd" clip-rule="evenodd" d="M152.5,152.5c0-2.625,0-5.252,0-8c2.748,0,5.375,0,8,0c0,2.666,0,5.334,0,8
		C157.834,152.5,155.166,152.5,152.5,152.5z"/>
	<path fill-rule="evenodd" clip-rule="evenodd" d="M104.5,152.5c2.625,0,5.251,0,8,0c0,2.748,0,5.375,0,8c-2.667,0-5.333,0-8,0
		C104.5,157.834,104.5,155.166,104.5,152.5z"/>
	<path fill-rule="evenodd" clip-rule="evenodd" d="M144.5,160.5c0-2.625,0-5.252,0-8c2.748,0,5.375,0,8,0c0,2.666,0,5.334,0,8
		C149.834,160.5,147.166,160.5,144.5,160.5z"/>
	<path fill-rule="evenodd" clip-rule="evenodd" d="M112.588,120.485c2.646,0,5.207,0,7.853,0c0-2.645,0-5.205,0-7.875
		c5.372,0,10.656,0,16.029,0c0,2.58,0,5.14,0,7.794c2.642,0,5.2,0,7.65,0c0.169,0.15,0.24,0.196,0.287,0.26
		c0.045,0.061,0.088,0.14,0.088,0.211c0.004,5.154,0.004,10.308,0.004,15.55c-2.645,0-5.205,0-7.941,0c0,2.701,0,5.324,0,8.008
		c-5.401,0-10.627,0-16.029,0c0-2.592,0-5.215,0-7.919c-2.734,0-5.294,0-7.941,0C112.588,131.202,112.588,125.977,112.588,120.485z"
		/>
</g>
</svg>
